<svg width="29" height="29" viewBox="0 0 29 29" fill="none" xmlns="http://www.w3.org/2000/svg">
<g id="arrow">
<circle id="Ellipse 462" cx="14.5" cy="14.5" r="14.5" fill="#0D8CE31A" />
<g id="icon">
<path id="Vector" d="M14.9475 17.9768L10.0218 12.8505C10.0149 12.8433 10.0094 12.8348 10.0057 12.8254C10.0019 12.8161 10 12.806 10 12.7959C10 12.7857 10.0019 12.7757 10.0057 12.7663C10.0094 12.7569 10.0149 12.7484 10.0218 12.7412L10.7121 12.0229C10.7261 12.0085 10.7449 12.0004 10.7646 12.0004C10.7842 12.0004 10.8031 12.0085 10.8171 12.0229L15 16.3758L19.1829 12.0229C19.1898 12.0157 19.1979 12.0099 19.207 12.006C19.216 12.002 19.2256 12 19.2354 12C19.2452 12 19.2549 12.002 19.2639 12.006C19.2729 12.0099 19.2811 12.0157 19.2879 12.0229L19.9782 12.7412C19.9851 12.7484 19.9906 12.7569 19.9943 12.7663C19.9981 12.7757 20 12.7857 20 12.7959C20 12.806 19.9981 12.8161 19.9943 12.8254C19.9906 12.8348 19.9851 12.8433 19.9782 12.8505L15.0525 17.9773C15.0456 17.9845 15.0374 17.9902 15.0284 17.9941C15.0194 17.998 15.0098 18 15 18C14.9902 18 14.9806 17.998 14.9716 17.9941C14.9626 17.9902 14.9544 17.9845 14.9475 17.9773V17.9768Z" fill="#0F2839"/>
</g>
</g>
</svg>
