<svg width="17" height="17" viewBox="0 0 17 17" fill="none" xmlns="http://www.w3.org/2000/svg">
<g id="fi_229930" clip-path="url(#clip0_1_4727)">
<g id="Group">
<g id="Group_2">
<path id="Vector" d="M12.7499 1.13866C10.7069 -0.0408247 8.07554 0.656086 6.89602 2.69908L2.09711 11.011C1.23584 12.5028 1.75359 14.4199 3.24535 15.2812C4.73712 16.1425 6.65627 15.6323 7.51754 14.1405L11.7093 6.88024C12.2523 5.9397 11.9289 4.73273 10.9883 4.18971C10.0478 3.64669 8.84083 3.9701 8.29781 4.91064L4.66893 11.196C4.48764 11.51 4.59523 11.9116 4.90923 12.0929C5.22323 12.2742 5.62477 12.1666 5.80606 11.8526L9.43494 5.56716C9.61595 5.25365 10.0183 5.14585 10.3318 5.32685C10.6453 5.50786 10.7531 5.91017 10.5721 6.22368L6.38035 13.484C5.8811 14.3487 4.76658 14.6432 3.90187 14.144C3.03716 13.6448 2.73499 12.5323 3.23424 11.6675L8.03315 3.3556C8.85064 1.93966 10.6774 1.45832 12.0933 2.27583C13.5093 3.09334 14.0058 4.91596 13.1883 6.33193L8.6967 14.1116C8.51541 14.4256 8.623 14.8271 8.937 15.0084C9.251 15.1897 9.65254 15.0821 9.83383 14.7681L14.3254 6.98845C15.5049 4.94546 14.7928 2.31817 12.7499 1.13866Z" fill="#24B59B"/>
</g>
</g>
</g>
<defs>
<clipPath id="clip0_1_4727">
<rect width="17" height="17" fill="white"/>
</clipPath>
</defs>
</svg>
